<svg width="163" height="32" viewBox="0 0 163 32" fill="none" xmlns="http://www.w3.org/2000/svg">
<path d="M2.7274e-05 13.8917C0.0227194 10.3101 1.18947 7.16729 3.61375 4.51231C6.02289 1.87435 9.02393 0.348305 12.5715 0.0551983C16.5199 -0.271946 20.041 0.866442 23.0344 3.51386C23.84 4.22677 24.5208 5.04746 25.1542 5.91355C25.3585 6.19153 25.3301 6.36739 25.0294 6.55838C24.1104 7.13892 23.2027 7.73648 22.3007 8.34349C22.0397 8.51747 21.9017 8.45696 21.7258 8.21869C19.8556 5.70932 17.3557 4.30619 14.2355 4.12087C12.528 4.01876 10.8866 4.4083 9.36809 5.23278C5.90943 7.11056 4.13377 10.0681 4.12999 13.9522C4.1281 16.8209 5.32889 19.2641 7.54894 21.1494C7.77586 21.3423 7.86852 21.5541 7.86852 21.8434C7.86285 23.135 7.87041 24.4265 7.86663 25.72C7.86663 26.24 7.78342 26.2911 7.32013 26.0358C4.53656 24.506 2.4678 22.3067 1.17056 19.4021C0.385793 17.6492 -0.00375475 15.813 2.7274e-05 13.8917Z" fill="#0B654A"/>
<path d="M11.7377 21.8188C11.7377 18.6835 11.7377 15.5482 11.7377 12.4148C11.7377 11.7605 11.7452 11.7529 12.3958 11.7529C16.5711 11.7529 20.7446 11.7529 24.9199 11.7529C25.5307 11.7529 25.5515 11.7718 25.5534 12.3959C25.5572 13.3716 25.5345 14.3493 25.5647 15.325C25.5799 15.7921 25.3983 15.9169 24.9577 15.915C22.1855 15.9018 19.4133 15.9075 16.6392 15.9094C15.9017 15.9094 15.9017 15.9113 15.9017 16.6393C15.9017 18.6249 15.9017 20.6085 15.9055 22.5941C15.9055 23.2143 15.9735 23.2578 16.5654 23.0782C18.3279 22.5468 19.8217 21.5862 21.049 20.2209C21.2532 19.9939 21.4007 19.9618 21.6352 20.1547C22.5127 20.8733 23.3939 21.5843 24.2826 22.2877C24.6003 22.5392 24.3942 22.734 24.2335 22.9156C23.2785 23.9953 22.1969 24.9295 20.9582 25.6745C19.5665 26.5104 18.0782 27.0985 16.4822 27.3878C16.0341 27.4691 15.8847 27.6582 15.896 28.1064C15.9225 29.2088 15.8922 30.3113 15.9111 31.4138C15.9187 31.8298 15.7996 32.0113 15.3495 32C14.3265 31.9754 13.3015 31.9754 12.2785 32C11.8285 32.0113 11.7169 31.826 11.7188 31.4119C11.7301 28.2142 11.7244 25.0165 11.7244 21.8188H11.7377Z" fill="#0B654A"/>
<path d="M133.03 12.5011V6.92123C134.277 6.92123 135.423 6.87085 136.552 6.96742C136.77 6.98841 137.102 7.5846 137.111 7.92049C137.157 10.6118 137.136 13.303 137.136 15.9943C137.136 18.5092 137.136 21.0283 137.136 23.5433C137.136 23.9211 137.136 24.299 137.136 24.8196C135.855 24.8196 134.68 24.8616 133.508 24.786C133.273 24.7693 133.063 24.3284 132.824 24.0639C129.776 25.6887 126.791 25.2563 124.721 22.8379C122.764 20.5539 122.684 16.3806 124.553 13.9706C126.597 11.3297 129.524 10.7965 133.034 12.5053L133.03 12.5011ZM133.193 18.1859C133.177 16.2588 132.014 15.016 130.212 15.0034C128.462 14.9908 127.11 16.4057 127.11 18.2447C127.11 20.1634 128.457 21.57 130.267 21.5448C132.022 21.5196 133.21 20.1592 133.193 18.1859Z" fill="#0B654A"/>
<path d="M50.0778 9.03318C49.2507 9.96526 48.4698 10.847 47.7014 11.7161C44.8464 10.1584 41.9746 10.5027 40.3288 12.56C38.7711 14.4997 38.8005 17.5898 40.3624 19.4372C41.8193 21.1586 44.8002 22.0445 47.8022 20.0963C48.5915 21.0074 49.3976 21.9353 50.2038 22.8632C47.185 25.9071 40.7025 25.9155 37.2848 22.2376C34.0394 18.7486 34.0981 12.9756 37.5074 9.52861C40.7612 6.23275 46.7232 5.94725 50.0778 9.03318Z" fill="#0B654A"/>
<path d="M71.232 24.7608H66.9285V7.17314H78.2477V10.8637H71.2698V14.1679H76.9882V17.6611H71.232V24.7608Z" fill="#0B654A"/>
<path d="M151.974 19.702H142.863C143.162 20.9406 144.064 21.4738 145.051 21.5452C146.13 21.625 147.234 21.3185 148.334 21.2345C148.683 21.2093 149.119 21.2513 149.388 21.4444C150.03 21.9063 150.593 22.4731 151.185 22.9937C147.864 26.5079 140.231 25.664 138.736 19.9875C137.766 16.297 140.029 12.5939 143.909 11.6114C147.423 10.7213 150.996 12.8416 151.752 16.3558C151.974 17.3886 151.903 18.4845 151.974 19.6978V19.702ZM148.065 16.7253C147.671 15.5161 146.726 14.8779 145.433 14.9157C144.194 14.9493 143.3 15.6043 142.977 16.7253H148.065Z" fill="#0B654A"/>
<path d="M102.836 11.6867C104.1 11.6867 105.242 11.6615 106.384 11.7119C106.585 11.7203 106.942 12.052 106.942 12.2409C106.976 16.3933 106.968 20.5499 106.968 24.761H102.895C102.861 24.253 102.824 23.7449 102.782 23.1362C102.601 23.2495 102.442 23.3083 102.345 23.4175C100.905 25.0675 99.1037 25.3824 97.1136 24.7526C95.1487 24.1312 94.141 22.5442 94.015 20.659C93.8219 17.741 93.9647 14.802 93.9647 11.7833H97.9449C97.9449 12.4425 97.9449 13.0974 97.9449 13.7482C97.9533 15.7425 97.9197 17.7368 97.9869 19.7269C98.0331 21.1377 98.9357 21.7464 100.33 21.4357C101.875 21.0915 102.828 19.8991 102.828 18.2868C102.828 16.1288 102.828 13.9707 102.828 11.6909L102.836 11.6867Z" fill="#0B654A"/>
<path d="M65.1936 18.3999C65.1264 22.271 62.0237 25.2142 58.1233 25.1176C54.206 25.021 51.2335 21.9729 51.309 18.1312C51.3846 14.3441 54.5965 11.3338 58.4382 11.4513C62.2924 11.5689 65.2608 14.6212 65.1936 18.4041V18.3999ZM55.2725 18.3663C55.3102 20.2389 56.5698 21.5614 58.308 21.553C60.0504 21.5446 61.3771 20.0248 61.3226 18.0892C61.2722 16.3426 59.9412 15.0201 58.2534 15.0411C56.4648 15.0663 55.2347 16.4308 55.2725 18.3621V18.3663Z" fill="#0B654A"/>
<path d="M78.6684 18.3709C78.4879 14.441 81.7501 11.481 85.6422 11.4181C89.3789 11.3593 92.6118 14.609 92.5698 18.2533C92.5278 22.1621 89.5049 25.0927 85.4869 25.1221C81.704 25.1473 78.6726 22.1453 78.6684 18.3709ZM88.6232 18.3541C88.6358 16.4269 87.3006 14.9616 85.5498 14.9826C83.8452 14.9994 82.5941 16.4101 82.5605 18.3457C82.5311 20.1007 83.862 21.5156 85.5834 21.5534C87.2209 21.5869 88.6106 20.1258 88.6232 18.3583V18.3541Z" fill="#0B654A"/>
<path d="M108.908 24.7653V11.754H112.813C112.842 12.2998 112.872 12.812 112.905 13.4544C113.186 13.2109 113.413 13.0303 113.619 12.833C116.331 10.2131 120.639 11.4139 121.521 15.1002C121.81 16.3052 121.844 17.5815 121.877 18.8285C121.932 20.7766 121.894 22.729 121.894 24.7527H117.847C117.847 23.1866 117.868 21.6583 117.843 20.1343C117.822 18.9125 117.796 17.6907 117.683 16.4773C117.587 15.4697 116.768 14.8819 115.769 14.9742C114.161 15.1212 112.876 16.5151 112.872 18.1357C112.863 19.9873 112.872 21.8431 112.867 23.6946C112.867 24.0347 112.838 24.3748 112.817 24.7653H108.908Z" fill="#0B654A"/>
<path d="M157.333 24.7736H153.503V11.7539H157.433V14.0127C158.798 12.1108 160.473 11.1325 162.883 11.5776V15.2177C162.081 15.3437 161.25 15.3983 160.46 15.6082C158.777 16.0532 157.526 17.8082 157.479 19.7354C157.442 21.3434 157.45 22.9472 157.433 24.5553C157.433 24.5847 157.408 24.6183 157.328 24.782L157.333 24.7736Z" fill="#0B654A"/>
</svg>
