<?xml version="1.0" encoding="UTF-8"?> <svg xmlns="http://www.w3.org/2000/svg" width="142" height="20" viewBox="0 0 142 20" fill="none"><path fill-rule="evenodd" clip-rule="evenodd" d="M39.45 0H42.815V3.625H39.45V0ZM39.45 5.575H42.815V19.735H39.45V5.575ZM0 0.294991V19.73H3.42V10.585L3.045 5.03999H3.365L10.115 19.415L16.87 5.03999H17.165L16.79 10.56V19.735H20.205V0.294991H15.75L10.43 12.535H9.765L4.455 0.294991H0ZM31.79 11.47L27.225 11.735V11.73C24.525 11.89 22.685 13.115 22.685 15.755C22.685 18.395 24.555 19.995 27.33 19.995C29.68 19.995 31.52 18.85 32.215 17.115H32.75V19.73H37.42V17.17H35.15V10.05C35.15 6.95998 33.2 5.30498 29.33 5.30498C25.46 5.30498 23.355 7.11998 23.46 10.24H26.585C26.56 8.66498 27.545 7.91998 29.2 7.91998C30.855 7.91998 31.79 8.61498 31.79 10.055V11.47ZM28.37 17.47C26.955 17.47 26.13 16.775 26.13 15.79H26.125V15.285C26.125 14.375 26.71 13.63 28.18 13.55L31.785 13.335L31.76 15.39C31.225 16.645 29.92 17.47 28.37 17.47ZM49.275 5.57498H46.31V19.735H49.7V12.24C49.7 9.81498 51.06 8.07998 53.355 8.07998C55.28 8.07998 56.24 9.16998 56.24 11.225V19.735H59.63V10.08C59.63 7.03998 57.895 5.30498 55.065 5.30498C52.875 5.30498 51.115 6.39998 50.315 8.15998H49.7L49.275 5.57498ZM88.27 17.015V19.735H83.975C81.92 19.735 81.225 18.64 81.225 17.04V8.345H78.555V5.57H81.225V1.04H84.59V5.575H87.98V8.35H84.59V17.015H88.27ZM101.295 8.695V5.575L101.29 5.57C101.075 5.515 100.675 5.49 100.33 5.49C98.54 5.49 97.02 6.505 96.46 8.505H95.845L95.42 5.57H89.95V8.345H92.46V19.735H95.85V13.175C95.85 10.08 97.825 8.64 100.36 8.64C100.647 8.64 100.98 8.66831 101.27 8.69284L101.295 8.695ZM109.308 5.30499C113.096 5.30603 115.845 7.6259 115.845 11.705C115.845 12.29 115.79 12.93 115.685 13.41H105.915V14.185C105.915 16.13 107.33 17.41 109.36 17.41C111.04 17.41 112.27 16.585 112.565 15.305H115.85C115.37 18.13 112.78 20 109.39 20C105.2 20 102.505 17.12 102.505 12.64C102.505 8.1609 105.309 5.30614 109.308 5.30499ZM112.455 11.195V10.745C112.455 9.06499 111.175 7.88999 109.28 7.88999C107.385 7.88999 105.915 9.08999 105.915 10.85V11.195H112.455ZM131.11 11.705C131.11 7.6259 128.361 5.30603 124.573 5.30499C120.574 5.30614 117.77 8.1609 117.77 12.64C117.77 17.12 120.465 20 124.655 20C128.045 20 130.635 18.13 131.115 15.305H127.83C127.535 16.585 126.305 17.41 124.625 17.41C122.595 17.41 121.18 16.13 121.18 14.185V13.41H130.95C131.055 12.93 131.11 12.29 131.11 11.705ZM127.72 10.745V11.195H121.18V10.85C121.18 9.08999 122.65 7.88999 124.545 7.88999C126.44 7.88999 127.72 9.06499 127.72 10.745ZM142 17.015V19.735H137.705C135.65 19.735 134.955 18.64 134.955 17.04V8.345H132.285V5.57H134.955V1.04H138.32V5.575H141.71V8.35H138.32V17.015H142ZM68.835 7.84L72.28 8.56H72.275C75.775 9.28 77.215 11.36 77.215 13.945C77.215 17.68 74.2 20 69.53 20C64.245 20 61.63 17.225 61.71 13.6H65.365C65.395 15.975 67.21 17.095 69.61 17.095C71.825 17.095 73.375 16.055 73.375 14.32C73.375 12.375 71.775 11.945 70.84 11.76L67.555 11.04C64.565 10.43 62.085 8.91 62.085 5.735C62.085 2.245 65.015 0.0300026 69.29 0.0300026C73.565 0.0300026 76.475 2.17 76.57 5.665H72.935C72.78 3.785 71.29 2.88 69.235 2.88C67.18 2.88 65.9 3.865 65.9 5.385C65.9 7.175 67.685 7.6 68.835 7.84Z" fill="#004631"></path></svg> 